<svg xmlns="http://www.w3.org/2000/svg" id="组_1990" width="178.052" height="44.814" viewBox="0 0 178.052 44.814">
    <defs>
        <style>
            .cls-1{fill:#003e92}
        </style>
    </defs>
    <path id="路径_10254" d="M429.5 221.663a3.135 3.135 0 0 1 1.309-2.609 5.543 5.543 0 0 1 3.3-.926 6.15 6.15 0 0 1 2.28.409v-1.244c-.02-1.253-.493-1.963-1.9-1.98a4.889 4.889 0 0 0-1.334.233 2.243 2.243 0 0 1 .074.543 1.621 1.621 0 0 1-.386 1.088 1.409 1.409 0 0 1-1.077.457 1.442 1.442 0 0 1-1.426-1.485c.018-1.522 1.864-2.544 4.33-2.545 1.956 0 3.184.463 3.84 1.306.6.758.624 1.863.627 3.423v4.067c.011.788.457 1 1.436 1.153l.113.015-.007.114a1.646 1.646 0 0 1-1.694 1.585c-.074.007-.146.009-.22.009a2.155 2.155 0 0 1-2.02-1.24 5.2 5.2 0 0 1-3.238 1.268 3.745 3.745 0 0 1-4.006-3.64m69.811 3.109a2.94 2.94 0 0 1-.41-1.058c-.113.128-.245.265-.447.458a4.065 4.065 0 0 1-2.808 1.116 3.675 3.675 0 0 1-2.859-1.222c-1-1.187-.988-2.693-.989-4.833v-2.061c-.021-.834-.283-1.118-1.057-1.14a2.854 2.854 0 0 0-.327.02l-.093.01-.035-.087a1.186 1.186 0 0 1-.09-.444c.024-1 1.286-1.529 2.028-1.683a4.977 4.977 0 0 1 .739-.081 1.615 1.615 0 0 1 1.331.541 2.177 2.177 0 0 1 .392 1.387l-.02 3.519a7.483 7.483 0 0 0 .38 2.9 1.5 1.5 0 0 0 1.542.921 1.894 1.894 0 0 0 1.754-.948 4.111 4.111 0 0 0 .465-2.063v-2.849c-.022-.834-.285-1.12-1.059-1.14a2.783 2.783 0 0 0-.326.02l-.094.01-.036-.087a1.216 1.216 0 0 1-.089-.444c.025-1 1.285-1.529 2.029-1.683a4.988 4.988 0 0 1 .741-.081 1.617 1.617 0 0 1 1.332.541 2.158 2.158 0 0 1 .4 1.386c0 .4-.038 1.12-.038 4.117 0 1.268-.021 1.941-.021 2.145.019.863.31 1.251 1.109 1.268.084 0 .172-.007.271-.015l.091-.011.034.087a1.168 1.168 0 0 1 .09.433c-.031.973-1.3 1.362-2.029 1.509a4.848 4.848 0 0 1-.693.077h-.02a1.361 1.361 0 0 1-1.188-.534m-39.983-5.136a6.22 6.22 0 0 1 1.582-4.33 5.553 5.553 0 0 1 4.148-1.7 4.517 4.517 0 0 1 3.453 1.4 4.3 4.3 0 0 1 1.113 2.872 3.219 3.219 0 0 1-.377 1.578l-.033.063h-6.933a3.4 3.4 0 0 0 3.635 3.434 3.763 3.763 0 0 0 2.787-1.206l.073-.1.1.072a1.025 1.025 0 0 1 .411.907c-.008 1.162-1.37 2.652-4.389 2.654a5.568 5.568 0 0 1-5.568-5.648m24.566 5.63a5.652 5.652 0 0 1-4.02-1.614 5.863 5.863 0 0 1-1.671-4.237 5.734 5.734 0 0 1 5.79-5.81 5.665 5.665 0 0 1 4.1 1.61 5.863 5.863 0 0 1-4.193 10.05zm21.24-.348c-.481-.131-.792-.395-.79-.792a1.242 1.242 0 0 1 .13-.5l.026-.056.06-.011a1.813 1.813 0 0 0 .756-.341c.288-.236.4-.563.4-1.489v-4.655c-.021-.784-.2-1.059-.853-1.077a2.772 2.772 0 0 0-.518.057l-.1.018-.038-.094a1.387 1.387 0 0 1-.1-.5c.017-.93 1.035-1.41 1.719-1.624a2.687 2.687 0 0 1 .773-.125 1.716 1.716 0 0 1 1.65 1.526 3.178 3.178 0 0 1 2.537-1.666 1.707 1.707 0 0 1 1.806 1.7 1.563 1.563 0 0 1-1.494 1.628 1.436 1.436 0 0 1-1.436-1.131c-.528.175-1.272.836-1.281 3.132v2.807c0 .921.132 1.253.391 1.487a2.87 2.87 0 0 0 1.014.343l.061.011.026.057a1.332 1.332 0 0 1 .143.544c0 .376-.28.635-.731.759a7.71 7.71 0 0 1-2.03.187 8.218 8.218 0 0 1-2.12-.194m-33.572 0c-.485-.133-.8-.4-.794-.8a1.2 1.2 0 0 1 .128-.5l.026-.056.061-.011a1.879 1.879 0 0 0 .766-.338c.279-.239.394-.567.4-1.492v-6.117l-1.644-.058-.029-.073a1.5 1.5 0 0 1-.125-.576.987.987 0 0 1 1.038-.994h.718v-.677a5.561 5.561 0 0 1 .721-3.192 3.829 3.829 0 0 1 3.446-1.677c2.131 0 3.916.992 3.927 2.584a1.5 1.5 0 0 1-1.483 1.546 1.465 1.465 0 0 1-1.445-1.424 1.524 1.524 0 0 1 .243-.808 1.7 1.7 0 0 0-1.061-.311 1.317 1.317 0 0 0-1.253.611 3.117 3.117 0 0 0-.306 1.568v1.76h2.822l.033.075a1.524 1.524 0 0 1 .123.59 1.091 1.091 0 0 1-.985 1.121 6.064 6.064 0 0 1-.632.022c-.47 0-.934-.033-1.279-.04v6.07c0 .918.153 1.247.431 1.487a3.381 3.381 0 0 0 1.152.343l.06.011.027.058a1.114 1.114 0 0 1 .116.462c0 .419-.342.685-.859.825a8.7 8.7 0 0 1-2.215.2 8.254 8.254 0 0 1-2.126-.2m-19.694 0c-.48-.131-.789-.4-.789-.792a1.266 1.266 0 0 1 .131-.5l.026-.057.062-.011a1.872 1.872 0 0 0 .763-.338c.28-.239.4-.567.4-1.492v-4.655c-.022-.784-.205-1.059-.856-1.077a2.747 2.747 0 0 0-.519.057l-.1.018-.037-.094a1.357 1.357 0 0 1-.1-.507c.017-.927 1.035-1.4 1.723-1.616a2.621 2.621 0 0 1 .758-.125 1.712 1.712 0 0 1 1.661 1.505 3.2 3.2 0 0 1 2.543-1.645 1.711 1.711 0 0 1 1.805 1.7 1.565 1.565 0 0 1-1.505 1.628 1.422 1.422 0 0 1-1.423-1.131c-.533.175-1.29.838-1.3 3.132v2.807c0 .921.138 1.251.415 1.487a2.727 2.727 0 0 0 1.01.343l.061.011.026.057a1.318 1.318 0 0 1 .139.54c.005.376-.28.637-.733.762a7.74 7.74 0 0 1-2.04.188 8.188 8.188 0 0 1-2.116-.194m-9.307 0c-.48-.131-.788-.4-.787-.792a1.223 1.223 0 0 1 .128-.5l.027-.057.061-.011a1.888 1.888 0 0 0 .767-.338c.28-.239.394-.567.4-1.492v-4.655c-.024-.784-.207-1.059-.858-1.077a2.752 2.752 0 0 0-.518.057l-.1.018-.036-.094a1.343 1.343 0 0 1-.105-.507c.017-.927 1.035-1.4 1.725-1.616a2.61 2.61 0 0 1 .756-.125 1.715 1.715 0 0 1 1.663 1.5 3.2 3.2 0 0 1 2.543-1.643 1.712 1.712 0 0 1 1.805 1.7 1.565 1.565 0 0 1-1.505 1.628 1.422 1.422 0 0 1-1.424-1.131c-.532.175-1.288.838-1.3 3.132v2.807c0 .921.135 1.251.412 1.487a2.722 2.722 0 0 0 1.01.343l.062.011.026.057a1.325 1.325 0 0 1 .14.54c0 .376-.281.637-.736.762a7.728 7.728 0 0 1-2.038.188 8.205 8.205 0 0 1-2.118-.194m38.813-5.822c.005 3.058 1.335 4.374 2.64 4.377 1.491 0 2.571-1.318 2.579-3.893a5.692 5.692 0 0 0-.783-3.148 2.267 2.267 0 0 0-1.916-1.118c-1.548 0-2.512 1.4-2.521 3.782m-46.783.644c-1.228.013-2.054.59-2.061 1.731a1.748 1.748 0 0 0 1.88 1.81 2.646 2.646 0 0 0 1.979-1V220.7a.8.8 0 0 0-.444-.64 2.591 2.591 0 0 0-1.354-.32m31.808-1.848c.22-.005.28-.055.323-.126a.935.935 0 0 0 .055-.408 2.077 2.077 0 0 0-2.12-2.045c-1.6 0-2.25 1.282-2.352 2.577h4.085zm-49.324 5.367a8.309 8.309 0 0 1-2.223-5.932 8.527 8.527 0 0 1 2.182-5.879 6.9 6.9 0 0 1 5.047-2.258c3.421.005 5.837 2.4 5.85 4.469a1.72 1.72 0 0 1-2.878 1.5 1.714 1.714 0 0 1-.52-1.285 1.891 1.891 0 0 1 .578-1.323 2.994 2.994 0 0 0-2.735-1.425 3.44 3.44 0 0 0-2.9 1.7 8.156 8.156 0 0 0-1.144 4.478 7.945 7.945 0 0 0 1.182 4.464 3.537 3.537 0 0 0 2.945 1.694 2.979 2.979 0 0 0 2.735-1.425 1.874 1.874 0 0 1-.578-1.315 1.729 1.729 0 0 1 .52-1.288 1.72 1.72 0 0 1 2.877 1.495c-.011 2.08-2.428 4.464-5.847 4.471a7.08 7.08 0 0 1-5.086-2.142" class="cls-1" transform="translate(-414.852 -206.44)"/>
    <g id="组_1989" transform="translate(11.133 23.705)">
        <path id="路径_10255" d="M443.214 287.741v1.114c0 .733.588.622.588.622h5.589c2.519.052 3.365-2.929 3.365-2.929.422-.952-.368-.813-.368-.813h-3.507a.852.852 0 0 0-.9.573c-.31 1.064-1.711 1.064-1.711 1.064h-2.47c-.726-.001-.586.369-.586.369z" class="cls-1" transform="translate(-443.203 -277.133)"/>
        <path id="路径_10256" d="M636.374 266.064h-16c-.555 0-.618.4-.618.4v.9a.487.487 0 0 0 .56.543h16.111c.738 0 .668-.389.668-.389v-.829c.005-.524-.721-.625-.721-.625z" class="cls-1" transform="translate(-550.43 -265.191)"/>
        <path id="路径_10257" d="M443.214 297.774v1.116c0 .734.588.626.588.626h8.786c2.52.053 3.87-3.931 3.87-3.931.25-.672-.45-.518-.45-.518h-3.815c-.448 0-1.6 1.641-1.6 1.641-.7.986-4.319.7-4.319.7H443.8c-.726.002-.586.366-.586.366z" class="cls-1" transform="translate(-443.203 -282.796)"/>
        <path id="路径_10258" d="M571.468 274.3h5.2c1.127.1.937-1.044.937-1.044 0-1.032-.581-.846-.581-.846-.756 0-.3-.465-.3-.465l.772-1.741c.594-.942-.64-.7-.64-.7-.824 0-.533-.283-.533-.283l.9-1.778c.415-.639-.26-.675-.26-.675h-3.813c-.6.1-1.91 2.736-1.91 2.736-.707 1.111-.123 1.078-.123 1.078h1.4l-1.6 3c-.563.894.551.718.551.718z" class="cls-1" transform="translate(-520.67 -265.621)"/>
        <path id="路径_10259" d="M478.838 285.365c-1.549 0-1.884-.732-1.884-.732-.673-.755 1.157-3.85 1.157-3.85.615-.885-.254-.833-.254-.833h-3.313c-1.178 0-1.2.434-1.2.434-.309.566-1.466 2.483-1.466 2.483-.621-1.816-4.7-4.26-4.7-4.26-.758-.474.461-.457.461-.457h5.65a.561.561 0 0 0 .611-.669v-.632c0-.83-.7-.728-.7-.728h-13.889a.5.5 0 0 0-.5.513v1.076c0 .522.312.465.312.465h1.822a.348.348 0 0 1 .379.477c-.012.578.86.878.86.878a20.835 20.835 0 0 1 1.9 1.328 7.468 7.468 0 0 1 3.034 7.606.386.386 0 0 1-.424.494h-6.382c-.683 0-.6.516-.6.516v1.145c0 .623.672.6.672.6h9.2c2.97 0 2.97-2.444 2.97-2.444v-2.733a5.092 5.092 0 0 0 3.282 1.666c.919.168 4.624.125 5.738.108h4.93s3.083.2 4.589-3.822c0 0 .342-.41-.329-.41h-4.9a3.246 3.246 0 0 1-2.922 1.843h-1.689z" class="cls-1" transform="translate(-452.68 -271.297)"/>
        <path id="路径_10260" d="M577.807 296.973h-2.356a3.31 3.31 0 0 1-2.918-1.843h-4.9c-.675 0-.327.41-.327.41 1.507 4.021 6.8 3.822 6.8 3.822h3.326c1.232 0 1.047-.483 1.047-.483v-1.147c.001-.864-.672-.759-.672-.759z" class="cls-1" transform="translate(-518.518 -282.843)"/>
        <path id="路径_10261" d="M518.189 273.714v1.231c0 .6.664.516.664.516h9.895c.854 0 .719.5.719.5v5a.538.538 0 0 1-.719.574H525.2c-.732 0-.677.415-.677.415v1.091c0 .733.847.623.847.623h6.809c2.492 0 2.5-1.769 2.5-1.769v-5.831c0-.676.78-.622.78-.622h15.073c.808 0 .611.522.611.522v7.127c0 .785.675.573.675.573h3.648c.983 0 .845-.595.845-.595v-9.533l1.265-2.835c.287-.688-.253-.656-.253-.656h-2.113l2.14-4.392c.386-.542-.229-.466-.229-.466h-.75c-.595.1-.482-.211-.482-.211l.276-.522c.207-.606-.225-.606-.225-.606h-4.176c-.751.173-1 1.416-1 1.416h-1.75c-.7 0-.562.39-.562.39v1.72c0 .493.761.555.761.555h2l-2.325 4.587c-.326.79-1.592.79-1.592.79h-1.85a.269.269 0 0 0-.048.012.675.675 0 0 0-.175-.008h-9.913c-1.174-.252-.1-.794-.1-.794l2.217-.748c1.01-.331.9-.8.9-.8v-4.687c0-.986-.786-.837-.786-.837h-2.991l.356-1.079a1 1 0 0 0-.34-.513h-4.151c-.724 0-.724.922-.724.922a.914.914 0 0 1-1.184.626h-2.131c-.785 0-.727.624-.727.624v4.423a1.374 1.374 0 0 0 1.078 1.324l2.321.8c1.1.611-.255.8-.255.8h-10c-.559-.02-.604.343-.604.343zm16.15-5.772v1.766a3.279 3.279 0 0 1-4.383.317h1.752a.613.613 0 0 0 .508-.683s.215-.7-.732-.726l-1.881.024-.033-.7z" class="cls-1" transform="translate(-488.744 -263.84)"/>
        <path id="路径_10262" d="M519.274 274.3h5.2c1.126.1.935-1.044.935-1.044 0-1.032-.577-.846-.577-.846-.762 0-.3-.465-.3-.465l.773-1.741c.592-.942-.644-.7-.644-.7-.821 0-.532-.283-.532-.283l.908-1.778c.419-.639-.267-.675-.267-.675h-3.809c-.6.1-1.905 2.736-1.905 2.736-.71 1.111-.125 1.078-.125 1.078h1.395l-1.6 3c-.556.894.548.718.548.718z" class="cls-1" transform="translate(-488.974 -265.621)"/>
        <path id="路径_10263" d="M637.03 272.537h-13.356c-.807 0-.7.548-.7.548v2.546c0 .656.395.625.395.625 2.382 1.67 6.985 1.643 6.985 1.643a14.132 14.132 0 0 0 6.763-1.519.617.617 0 0 0 .473-.668v-2.707a.451.451 0 0 0-.56-.468zm-3.7 2.579a6.827 6.827 0 0 1-6.059.092v-.639h6.06z" class="cls-1" transform="translate(-552.38 -269.117)"/>
        <path id="路径_10264" d="M628.339 298.256c6.734 0 8.951-3.483 8.951-3.483V288.5c0-.521-.673-.574-.673-.574h-16.273c-.563 0-.507.6-.507.6v6.374c1.71 2.892 8.502 3.356 8.502 3.356zm2.611-8.168h1.995v1.264h-1.995zm-6.793 0h1.989v1.264h-1.989zm0 3.278h1.989v1.264h4.8v-1.264h1.995v1.264s-3.707 2.985-8.788 0z" class="cls-1" transform="translate(-550.477 -278.467)"/>
        <path id="路径_10265" d="M461.3 264.5c.421-.652-.2-.662-.2-.662h-4.486c-.477 0-.762.269-1.18 1.077a.979.979 0 0 1-1.09.625h-10.075c-1.123 0-1.041 1.564-1.041 1.564v2.7c0 .968.448.805.448.805h4.24a.475.475 0 0 0 .5-.648v-1.687a.4.4 0 0 1 .479-.445h15.985c.618 0 .48.468.48.468v1.822c0 .7.567.49.567.49h3.955c.7 0 .613-.439.613-.439v-3.823a.8.8 0 0 0-.891-.861h-8.084c-.843 0-.449-.522-.449-.522z" class="cls-1" transform="translate(-443.218 -263.84)"/>
    </g>
    <path id="路径_10266" fill="#dc000c" d="M718.141 207.064a.477.477 0 0 1 .324-.163.309.309 0 0 1 .289.344.52.52 0 0 1-.161.345 31.356 31.356 0 0 0-7.392 20.437c0 8.737 3.112 14.915 7.392 20.306a.531.531 0 0 1 .161.346.309.309 0 0 1-.289.345.471.471 0 0 1-.324-.167L699.9 230.986a3.81 3.81 0 0 1 0-6.044l18.236-17.878" transform="translate(-587.068 -205.555)"/>
    <path id="路径_10267" d="M768.986 203.472c-7.137 0-9.927 10.252-9.927 22.472s2.79 22.342 9.927 22.342c4.285 0 7.936-2.545 7.948-4.633a1.784 1.784 0 0 0-.551-1.279 8.177 8.177 0 0 1-2.832-5.727 5.855 5.855 0 0 1 5.495-5.84c3.633 0 5.773 2.894 5.773 6.637a15.674 15.674 0 0 1-3.113 8.874.537.537 0 0 0-.091.3c0 .185.106.337.269.337a.489.489 0 0 0 .337-.178L800.46 228.9a3.81 3.81 0 0 0 0-6.043l-18.239-17.879a.507.507 0 0 0-.337-.176c-.165 0-.269.153-.269.34a.537.537 0 0 0 .091.3 15.674 15.674 0 0 1 3.113 8.869c0 3.742-2.139 6.641-5.773 6.641a5.857 5.857 0 0 1-5.495-5.844 8.182 8.182 0 0 1 2.832-5.725 1.782 1.782 0 0 0 .551-1.277c-.012-2.092-3.664-4.637-7.948-4.637" class="cls-1" transform="translate(-623.898 -203.472)"/>
</svg>
