<svg xmlns="http://www.w3.org/2000/svg" width="38.082" height="36.427" viewBox="0 0 38.082 36.427">
    <defs>
        <style>
            .cls-1{fill:#fff}
        </style>
    </defs>
    <g id="组_1545" transform="translate(-1196 -291.996)">
        <path id="路径_10067" d="M1196 307.106a29.1 29.1 0 0 1 .616-3.056 15.724 15.724 0 0 1 9.74-10.179c7.91-3.145 15.487-2.44 22.276 2.928a13.544 13.544 0 0 1 5.4 12.19 13.776 13.776 0 0 1-3.555 7.9 44.032 44.032 0 0 1-9.312 7.84c-1.658 1.121-3.413 2.1-5.132 3.128a4.291 4.291 0 0 1-.93.4c-1.818.563-2.968-.34-2.819-2.228a12.608 12.608 0 0 1 .286-1.753c.145-.648-.028-.927-.727-1.107a37.841 37.841 0 0 1-6.217-1.846c-4.642-2.106-7.952-5.517-9.193-10.621a30.321 30.321 0 0 1-.435-3.087zm18.958 18.534c1.437-.883 2.729-1.618 3.96-2.444 3.572-2.394 7.081-4.872 9.853-8.228a10.887 10.887 0 0 0 2.814-7.263 11.621 11.621 0 0 0-4.04-8.561c-6.35-5.83-17.607-6.1-24.24-.593-6.41 5.325-6.273 13.512.315 18.636a17.738 17.738 0 0 0 8.518 3.478c2.355.343 3.22 1.457 2.925 3.837-.037.298-.056.598-.105 1.138z" class="cls-1"/>
        <path id="路径_10068" d="M1298.465 365.119c0 1.482-.045 2.743.016 4 .04.817-.346.911-1.02.924-.7.014-.935-.212-.922-.92.038-2.149 0-4.3.027-6.449 0-.352.153-.984.3-1 .6-.076 1.262-.323 1.758.388.937 1.344 1.941 2.641 2.919 3.957.08.108.17.208.423.517v-3.808c0-1.09.482-1.465 1.517-1.086.2.075.384.517.387.792q.047 3.224 0 6.449c-.005.374-.158 1.029-.336 1.064-.593.113-1.276.31-1.764-.386-.86-1.226-1.769-2.417-2.661-3.621-.16-.221-.333-.428-.644-.821z" class="cls-1" transform="translate(-83.47 -57.7)"/>
        <path id="路径_10069" d="M1352.514 367.166h-3.644v1.346h3.49c.1.151.148.195.153.243.15 1.672.149 1.672-1.526 1.672-1.13 0-2.26-.012-3.39 0-.5.007-.69-.183-.685-.7q.032-3.516 0-7.034c-.006-.593.262-.711.772-.7 1.327.019 2.657.045 3.982-.009.73-.03.971.242.89.927a9.312 9.312 0 0 0-.005.964h-3.681v1.382h2.536c1.159 0 1.16 0 1.144 1.155-.003.196-.018.388-.036.754z" class="cls-1" transform="translate(-125.292 -58.105)"/>
        <path id="路径_10070" d="M1240.114 368.551c1.059 0 2.015.044 2.965-.013.8-.048.765.421.77.966.005.56-.005.994-.783.967-1.356-.048-2.715-.031-4.073 0-.573.011-.812-.173-.806-.778.024-2.291.032-4.583 0-6.874-.012-.757.383-.8.961-.794.554.007 1-.009.981.77-.04 1.859-.015 3.725-.015 5.756z" class="cls-1" transform="translate(-35.023 -58.135)"/>
        <path id="路径_10071" d="M1277.912 366.22c0-1.158.032-2.316-.011-3.473-.029-.779.468-.69.95-.686s.975-.118.965.67q-.044 3.557 0 7.115c.008.732-.46.657-.906.635s-1.021.2-1-.62c.021-1.212.002-2.427.002-3.641z" class="cls-1" transform="translate(-67.996 -58.166)"/>
    </g>
</svg>
