<svg xmlns="http://www.w3.org/2000/svg" width="35.382" height="35.381" viewBox="0 0 35.382 35.381">
    <defs>
        <style>
            .cls-1{fill:#fff}
        </style>
    </defs>
    <g id="组_1543" transform="translate(-745.932 -150.694)">
        <g id="组_1542">
            <path id="路径_10062" d="M772.99 157.011a2.074 2.074 0 1 0 2.074 2.074 2.074 2.074 0 0 0-2.074-2.074z" class="cls-1"/>
            <path id="路径_10063" d="M763.768 159.671a8.714 8.714 0 1 0 8.714 8.713 8.723 8.723 0 0 0-8.714-8.713zm0 14.295a5.582 5.582 0 1 1 5.581-5.582 5.587 5.587 0 0 1-5.581 5.582z" class="cls-1"/>
            <path id="路径_10064" d="M770.686 186.075H756.56a10.64 10.64 0 0 1-10.628-10.627v-14.127a10.64 10.64 0 0 1 10.628-10.627h14.126a10.64 10.64 0 0 1 10.628 10.627v14.127a10.64 10.64 0 0 1-10.628 10.627zm-14.126-32.053a7.307 7.307 0 0 0-7.3 7.3v14.127a7.307 7.307 0 0 0 7.3 7.3h14.126a7.308 7.308 0 0 0 7.3-7.3v-14.128a7.307 7.307 0 0 0-7.3-7.3z" class="cls-1"/>
        </g>
    </g>
</svg>
